<svg xmlns="http://www.w3.org/2000/svg" xmlns:xlink="http://www.w3.org/1999/xlink" version="1.1" x="0px" y="0px" viewBox="0 0 100 125" enable-background="new 0 0 100 100" xml:space="preserve"><path d="M89.517,23.185c-4.808-6.355-12.317-9.578-22.318-9.578c-7.418,0-14.073,1.801-17.007,2.729  c-2.934-0.928-9.589-2.729-17.007-2.729c-10.003,0-17.512,3.222-22.32,9.577c-7.536,9.962-7.88,27.31-1.023,51.563l0.309,1.092  h18.876c5.898,5.083,13.565,8.166,21.944,8.166s16.045-3.083,21.944-8.166h17.32l0.309-1.092  C97.398,50.495,97.053,33.146,89.517,23.185z M50.97,19.671c14.799,0,27.183,10.536,30.044,24.502H66.936L55.451,31.867v12.306  H20.925C23.787,30.207,36.171,19.671,50.97,19.671z M12.422,72.839c-6.275-22.724-5.995-38.817,0.834-47.846  c4.21-5.565,10.915-8.387,19.927-8.387c3.58,0,7.008,0.463,9.848,1.019c-14.745,3.578-25.729,16.883-25.729,32.713  c0,8.643,3.276,16.533,8.649,22.501H12.422z M71.778,72.839c-1.184,1.096-2.452,2.1-3.796,3C63.11,79.1,57.259,81.005,50.97,81.005  S38.829,79.1,33.958,75.839c-1.345-0.9-2.613-1.904-3.796-3c-6.058-5.605-9.859-13.616-9.859-22.501  c0-1.068,0.056-2.124,0.163-3.165h37.985v-7.694l7.181,7.694h15.841c0.107,1.041,0.163,2.097,0.163,3.165  C81.637,59.223,77.835,67.233,71.778,72.839z M87.96,72.839H75.988c5.373-5.968,8.649-13.858,8.649-22.501  c0-16.079-11.333-29.554-26.429-32.875c2.661-0.48,5.765-0.856,8.991-0.856c9.011,0,15.715,2.822,19.926,8.388  C93.955,34.022,94.235,50.116,87.96,72.839z M36.611,57.758c-1.841,0-3.333-1.492-3.333-3.334c0-1.841,1.492-3.333,3.333-3.333  s3.334,1.492,3.334,3.333C39.945,56.266,38.452,57.758,36.611,57.758z M68.661,54.424c0,1.842-1.492,3.334-3.333,3.334  s-3.334-1.492-3.334-3.334c0-1.841,1.493-3.333,3.334-3.333S68.661,52.583,68.661,54.424z M65.155,66.007h-28.5  c-0.614,0-1.167,0.374-1.394,0.945c-0.227,0.57-0.083,1.222,0.362,1.644c4.908,4.647,10.084,7.004,15.383,7.004  c9.025,0,15.031-6.821,15.282-7.111c0.384-0.444,0.474-1.071,0.23-1.605C66.275,66.35,65.742,66.007,65.155,66.007z M51.007,72.6  c-3.432,0-6.849-1.206-10.197-3.593h20.378C58.881,70.687,55.309,72.6,51.007,72.6z"/><text x="0" y="115" fill="#000000" font-size="5px" font-weight="bold" font-family="'Helvetica Neue', Helvetica, Arial-Unicode, Arial, Sans-serif">Created by Ji Sub Jeong</text><text x="0" y="120" fill="#000000" font-size="5px" font-weight="bold" font-family="'Helvetica Neue', Helvetica, Arial-Unicode, Arial, Sans-serif">from the Noun Project</text></svg>