<svg xmlns="http://www.w3.org/2000/svg" xmlns:xlink="http://www.w3.org/1999/xlink" version="1.1" x="0px" y="0px" viewBox="0 0 100 125" enable-background="new 0 0 100 100" xml:space="preserve"><g><path d="M95.896,64.176c-0.957-0.958-2.394-1.758-4.391-2.443c-6.545-2.255-34.286-9.697-35.407-9.995   c-1.502-0.491-2.885-0.276-3.761,0.6c-0.889,0.889-1.102,2.225-0.618,3.705c0.316,1.18,7.769,28.95,10.014,35.463   c0.686,1.997,1.484,3.433,2.444,4.391c1.183,1.185,2.405,1.434,3.222,1.434c0.069,0,0.135-0.003,0.197-0.006   c1.702-0.081,2.841-1.204,3.11-1.505L79.525,87l5.666,5.665c0.647,0.647,1.508,1.003,2.424,1.003s1.776-0.354,2.422-1.002   l2.628-2.627c0.647-0.648,1.004-1.509,1.004-2.425c-0.001-0.916-0.356-1.778-1.004-2.424l-5.666-5.665l8.777-8.779   c0.343-0.308,1.465-1.445,1.548-3.148C97.365,66.73,97.151,65.433,95.896,64.176z M94.254,69.142L83.871,79.525l7.23,7.229   c0.229,0.229,0.354,0.535,0.354,0.86c0,0.326-0.125,0.63-0.354,0.859l-2.628,2.628c-0.458,0.458-1.261,0.456-1.719-0.001   l-7.229-7.229L69.102,94.296c-0.115,0.13-0.74,0.776-1.612,0.817l-0.09,0.003c-0.579,0-1.138-0.263-1.658-0.784   c-0.715-0.716-1.342-1.875-1.918-3.547c-2.218-6.441-9.65-34.141-9.982-35.372c-0.107-0.329-0.316-1.134,0.062-1.512   c0.093-0.093,0.261-0.216,0.653-0.216c0.252,0,0.548,0.054,0.913,0.172c1.175,0.314,28.844,7.736,35.318,9.966   c1.67,0.575,2.831,1.202,3.545,1.917c0.55,0.549,0.813,1.138,0.782,1.75C95.073,68.361,94.426,68.985,94.254,69.142z"/><path d="M90.478,64.715c-5.85-2.015-29.883-8.502-34.642-9.783L54.601,54.6l0.332,1.237c1.28,4.759,7.771,28.798,9.782,34.642   c0.521,1.511,1.089,2.584,1.692,3.187c0.338,0.338,0.672,0.509,0.994,0.509h0.025c0.516-0.015,0.93-0.457,0.928-0.457   l11.171-11.179l8.09,8.09l3.013-3.015l-8.09-8.089l11.056-11.057l0.08-0.072c0.003-0.004,0.474-0.416,0.499-0.952   c0.015-0.336-0.155-0.684-0.508-1.037C93.062,65.803,91.989,65.234,90.478,64.715z M80.453,79.524l8.089,8.089l-0.927,0.929   l-8.09-8.089L67.408,92.578c-0.262-0.28-0.744-0.969-1.299-2.58c-1.859-5.401-7.607-26.59-9.419-33.309   c6.718,1.813,27.901,7.558,33.308,9.419c1.603,0.552,2.293,1.032,2.576,1.296L80.453,79.524z"/><path d="M38.267,8.493c-0.687-1.997-1.486-3.434-2.444-4.391c-1.283-1.283-2.617-1.468-3.42-1.428   c-1.653,0.078-2.752,1.106-3.11,1.505l-8.818,8.819l-5.666-5.666c-0.647-0.646-1.508-1.003-2.425-1.003   c-0.916,0-1.776,0.356-2.423,1.003L7.334,9.96c-0.647,0.646-1.003,1.508-1.003,2.424s0.356,1.778,1.003,2.425L13,20.474   l-8.776,8.778C3.881,29.56,2.758,30.697,2.676,32.4c-0.042,0.868,0.171,2.166,1.427,3.422c0.958,0.957,2.394,1.758,4.391,2.444   c6.6,2.273,35.178,9.934,35.407,9.994c0.536,0.175,1.055,0.264,1.545,0.264c0.885,0,1.652-0.299,2.216-0.863   c0.888-0.888,1.101-2.223,0.617-3.704C47.963,42.779,40.524,15.047,38.267,8.493z M46.098,46.098   c-0.093,0.092-0.26,0.215-0.652,0.215c-0.252,0-0.549-0.054-0.916-0.172c-0.286-0.076-28.787-7.718-35.316-9.966   c-1.672-0.575-2.832-1.202-3.546-1.917c-0.549-0.548-0.812-1.137-0.782-1.75c0.042-0.871,0.689-1.495,0.86-1.651l10.383-10.383   l-7.23-7.23c-0.229-0.228-0.355-0.533-0.355-0.859s0.126-0.631,0.355-0.859l2.627-2.627c0.229-0.229,0.534-0.355,0.858-0.355   c0.326,0,0.632,0.128,0.861,0.355l7.23,7.229L30.896,5.703c0.117-0.129,0.744-0.776,1.614-0.819l0.09-0.003   c0.58,0,1.138,0.265,1.66,0.786c0.714,0.714,1.341,1.873,1.916,3.547c2.232,6.481,9.89,35.028,9.983,35.372   C46.266,44.914,46.474,45.721,46.098,46.098z"/><path d="M35.284,9.521c-0.521-1.514-1.09-2.586-1.691-3.187c-0.337-0.337-0.671-0.51-1.019-0.51c0,0-0.001,0-0.001,0   c-0.516,0.016-0.929,0.457-0.929,0.457l-11.17,11.18l-8.089-8.09l-3.014,3.013l8.09,8.09L6.407,31.528l-0.08,0.073   c-0.005,0.005-0.475,0.425-0.501,0.954c-0.015,0.335,0.156,0.684,0.508,1.034c0.602,0.604,1.674,1.174,3.188,1.692   c5.859,2.02,29.885,8.505,34.642,9.784l1.236,0.333l-0.332-1.237C43.788,39.405,37.302,15.38,35.284,9.521z M10.001,33.89   c-1.603-0.553-2.292-1.032-2.575-1.295l12.121-12.121l-8.089-8.09l0.927-0.927l8.09,8.09L32.591,7.419   c0.261,0.28,0.744,0.968,1.299,2.581c1.868,5.426,7.81,27.344,9.42,33.309C37.344,41.699,15.425,35.757,10.001,33.89z"/></g><text x="0" y="115" fill="#000000" font-size="5px" font-weight="bold" font-family="'Helvetica Neue', Helvetica, Arial-Unicode, Arial, Sans-serif">Created by Bakunetsu Kaito</text><text x="0" y="120" fill="#000000" font-size="5px" font-weight="bold" font-family="'Helvetica Neue', Helvetica, Arial-Unicode, Arial, Sans-serif">from the Noun Project</text></svg>